<svg xmlns="http://www.w3.org/2000/svg" viewBox="0 0 825.00 935.67" width="825" height="936">
<style>
  .sr-main  { fill: #D5738F; }   /* S, mariposa y texto */
  .sr-light { fill: #EFA6B9; }  /* R */
</style>
<path class="sr-light" fill-rule="evenodd" d="M630.33,705.64C614.24,704.73 597.20,699.94 583.83,692.58C577.69,689.20 576.18,688.29 573.50,686.37C572.03,685.31 570.08,683.95 569.17,683.33C564.28,680.06 551.26,667.76 546.40,661.83C544.90,660.00 543.02,657.75 542.22,656.83C539.65,653.87 533.90,646.58 531.50,643.23C530.22,641.44 528.01,638.37 526.59,636.40C524.00,632.81 520.62,627.91 514.58,619.00C512.78,616.34 510.46,612.97 509.43,611.50C508.40,610.03 506.39,607.11 504.96,605.00C500.72,598.72 490.63,583.89 488.81,581.27C487.89,579.93 484.90,575.53 482.17,571.50C479.44,567.47 476.14,562.74 474.84,561.00C471.91,557.09 469.10,553.14 466.27,549.00C461.91,542.58 460.57,540.73 457.00,536.17C454.99,533.60 452.22,530.00 450.84,528.17C442.71,517.36 441.45,515.87 435.29,509.67C427.24,501.57 424.09,499.26 417.62,496.71C413.88,495.23 411.66,494.74 406.87,494.33C404.50,494.13 402.16,493.76 401.66,493.50C400.38,492.83 399.80,491.30 400.34,489.98C401.17,487.98 400.98,488.00 419.57,488.00C438.47,487.99 441.25,487.84 453.50,486.12C464.87,484.53 481.22,477.97 488.12,472.23C489.06,471.45 490.66,470.18 491.67,469.42C493.59,467.98 499.51,462.01 501.89,459.12C505.77,454.42 512.09,443.56 514.77,437.00C520.52,422.92 522.92,408.58 522.56,390.50C522.15,370.71 518.64,355.83 510.98,341.45C507.42,334.78 501.26,326.68 496.76,322.75C495.55,321.70 493.87,320.22 493.03,319.48C483.73,311.26 469.51,305.04 453.50,302.20C444.42,300.59 443.67,300.56 409.83,300.53C374.67,300.50 376.37,300.40 374.26,302.59C371.45,305.49 371.38,306.93 371.18,371.46C371.07,406.39 370.99,411.48 370.56,411.92C369.59,412.88 368.48,412.14 365.83,408.75C359.52,400.67 344.83,384.77 340.18,380.97C331.96,374.26 331.58,373.73 331.84,369.50C331.94,367.85 331.88,356.97 331.70,345.33C331.34,322.44 331.26,321.45 329.37,315.42C328.14,311.50 326.95,309.37 324.55,306.78C319.72,301.56 313.40,299.95 294.58,299.15C289.02,298.92 288.01,298.61 287.50,297.01C287.15,295.91 288.20,294.40 289.59,293.99C291.48,293.44 458.66,293.71 464.33,294.28C469.30,294.78 475.31,295.51 479.67,296.16C481.41,296.42 483.28,296.69 483.83,296.77C484.73,296.89 489.72,298.12 495.17,299.55C502.42,301.46 511.20,305.07 520.56,309.99C524.74,312.18 532.62,317.88 537.73,322.42C546.27,329.98 554.34,340.10 557.53,347.25C565.33,364.69 567.67,375.16 567.67,392.65C567.67,398.43 567.52,401.72 567.19,403.55C566.92,404.99 566.60,407.07 566.48,408.17C565.92,413.15 562.47,424.61 559.74,430.50C556.77,436.93 550.82,447.14 549.15,448.67C548.66,449.12 547.06,451.03 545.61,452.90C541.51,458.19 533.52,465.67 527.00,470.32C512.32,480.80 498.96,486.61 481.33,490.17C479.77,490.49 478.05,490.87 477.50,491.02C476.13,491.41 470.16,492.29 466.41,492.67C460.36,493.28 460.46,494.44 466.82,497.45C471.96,499.89 480.89,506.49 485.00,510.90C489.13,515.33 496.96,524.70 500.54,529.50C501.90,531.33 503.99,534.11 505.17,535.67C509.81,541.79 512.84,545.91 513.97,547.67C514.63,548.68 515.85,550.40 516.67,551.50C517.50,552.60 518.74,554.36 519.42,555.41C520.10,556.45 522.13,559.30 523.93,561.74C527.97,567.22 532.66,573.79 536.17,578.93C539.33,583.54 543.72,589.82 545.43,592.17C550.09,598.54 553.25,603.00 559.00,611.33C562.60,616.56 566.26,621.81 567.12,623.00C567.99,624.19 569.54,626.44 570.57,628.00C571.61,629.56 573.51,632.26 574.79,634.00C578.29,638.74 579.28,640.11 582.49,644.67C584.11,646.96 586.81,650.56 588.49,652.67C590.17,654.77 592.55,657.77 593.77,659.33C603.39,671.58 612.99,680.88 622.21,686.89C625.34,688.93 631.63,692.16 633.17,692.52C633.72,692.65 635.29,693.17 636.67,693.68C639.19,694.61 645.35,696.05 649.33,696.64C654.44,697.40 666.12,697.12 671.00,696.12C680.07,694.26 687.41,691.70 695.26,687.65C698.80,685.83 701.96,684.33 702.29,684.33C703.10,684.33 704.00,685.37 704.00,686.29C704.00,687.33 703.00,688.14 698.12,691.06C687.64,697.31 679.48,700.46 665.67,703.60C655.96,705.80 644.74,706.45 630.33,705.64Z M348.47,690.69C286.27,690.49 289.99,690.60 289.34,688.85C289.00,687.93 289.58,686.41 290.45,685.91C290.85,685.69 293.10,685.41 295.50,685.29C309.55,684.60 317.05,683.03 321.83,679.78C326.00,676.94 329.16,669.19 330.51,658.50C331.12,653.63 331.68,637.91 331.32,635.90C331.06,634.50 331.39,632.80 332.08,631.96C332.31,631.68 334.00,630.46 335.83,629.25C340.77,625.98 345.34,622.01 353.33,614.00C360.05,607.28 365.19,601.46 367.13,598.38C368.81,595.73 370.60,596.44 371.04,599.91C371.17,600.97 371.30,612.63 371.32,625.83C371.38,657.14 371.63,661.75 373.69,668.85C376.45,678.41 379.41,680.83 391.52,683.46C395.54,684.33 400.55,684.86 408.49,685.23C412.65,685.43 412.86,685.47 413.74,686.36C414.93,687.54 414.91,688.47 413.69,689.69C412.89,690.50 412.44,690.67 411.11,690.67C410.22,690.67 408.75,690.72 407.83,690.77C406.92,690.83 380.20,690.79 348.47,690.69Z M332.38,596.08C331.69,595.50 331.69,595.50 331.63,523.89C331.57,452.28 331.57,452.28 332.27,451.58C333.69,450.16 334.48,451.01 339.47,459.28C346.05,470.21 354.14,491.04 355.72,501.17C357.29,511.23 357.43,512.72 357.57,521.50C357.73,530.99 357.53,534.10 356.16,543.85C354.74,553.88 353.28,558.91 347.85,572.46C345.55,578.20 340.40,587.73 337.84,591.00C337.19,591.82 336.14,593.28 335.49,594.24C334.02,596.44 333.30,596.86 332.38,596.08Z"/>
<path class="sr-main" fill-rule="evenodd" d="M214.00,658.35C207.73,658.08 206.64,657.97 199.50,656.96C183.84,654.74 167.39,650.54 156.33,645.93C153.68,644.82 150.07,643.32 148.33,642.60C140.91,639.51 131.62,634.20 122.43,627.78C99.70,611.93 81.56,588.15 72.79,562.75C68.32,549.80 66.20,539.20 65.67,527.14C65.35,519.89 65.62,512.04 66.34,507.00C67.19,501.18 67.38,500.01 68.02,497.00C69.36,490.71 69.79,489.09 71.41,484.17C80.01,458.12 95.02,436.93 115.73,421.64C121.90,417.08 124.04,415.66 128.69,412.99C131.33,411.47 133.88,409.98 134.33,409.67C136.26,408.38 149.95,402.22 155.49,400.14C162.04,397.69 170.09,395.24 174.50,394.35C175.23,394.20 176.96,393.84 178.33,393.55C189.01,391.31 207.96,389.30 213.83,389.79C215.12,389.90 218.42,390.08 221.17,390.19C223.92,390.30 226.29,390.51 226.43,390.64C226.58,390.78 223.43,390.99 219.43,391.11C203.39,391.59 192.10,393.09 180.83,396.23C168.68,399.62 159.68,402.75 152.70,406.01C127.06,417.99 107.23,435.43 94.15,457.50C86.44,470.50 80.65,486.95 78.36,502.33C76.02,518.04 76.84,536.31 80.53,551.17C81.35,554.46 85.32,566.27 86.75,569.67C89.61,576.46 94.91,586.36 98.22,591.08C98.83,591.95 99.89,593.45 100.56,594.42C110.69,608.87 125.07,622.03 141.61,631.99C143.14,632.91 144.45,633.67 144.53,633.67C144.60,633.67 145.82,634.31 147.25,635.10C159.46,641.85 178.33,648.27 193.00,650.66C208.37,653.17 211.91,653.48 224.83,653.45C239.59,653.42 245.60,652.82 258.50,650.12C279.46,645.73 299.77,636.31 315.83,623.54C320.08,620.16 330.42,609.83 333.86,605.53C339.38,598.64 340.29,597.36 343.24,592.50C352.64,576.98 358.61,561.54 361.15,546.17C361.45,544.33 361.96,541.48 362.27,539.83C363.18,535.01 363.04,512.48 362.06,506.50C360.47,496.79 358.97,490.43 356.90,484.67C356.28,482.93 354.97,479.25 353.99,476.50C350.33,466.18 339.69,447.49 331.83,437.56C328.48,433.32 321.99,425.65 318.86,422.20C314.52,417.41 301.70,405.60 294.41,399.66C290.70,396.64 286.50,393.22 285.08,392.06C282.45,389.91 264.39,376.31 255.67,369.91C243.64,361.08 236.57,355.95 233.33,353.72C229.51,351.07 227.41,349.60 224.84,347.74C223.44,346.72 209.78,336.59 206.97,334.48C199.67,329.01 195.85,326.00 190.90,321.83C187.63,319.08 184.18,316.18 183.23,315.38C179.63,312.37 167.18,300.38 164.73,297.57C156.10,287.70 153.38,284.16 148.88,276.96C141.61,265.32 135.21,249.43 133.69,239.25C133.51,238.10 133.14,235.67 132.86,233.83C131.07,222.09 131.74,209.70 134.90,196.33C138.08,182.90 144.98,169.00 154.12,157.64C158.70,151.93 168.02,143.33 173.83,139.43C181.91,134.03 185.37,132.10 192.92,128.80C203.02,124.40 217.62,120.45 229.17,119.00C244.50,117.09 263.95,117.62 277.67,120.34C278.49,120.50 280.44,120.87 282.00,121.16C290.55,122.76 302.66,126.10 309.33,128.69C311.26,129.44 314.56,130.69 316.67,131.47C328.84,135.99 346.84,145.51 362.33,155.64C365.72,157.85 370.09,160.71 372.03,161.97C376.53,164.91 376.57,165.00 376.06,170.45C375.85,172.68 375.60,178.10 375.49,182.50C375.38,186.90 375.16,192.83 374.99,195.67C374.82,198.51 374.68,203.43 374.68,206.61C374.67,212.56 374.46,213.67 373.34,213.67C372.60,213.67 372.67,213.87 371.18,207.38C369.67,200.75 366.08,190.15 363.78,185.50C361.25,180.39 355.19,170.09 353.03,167.22C346.75,158.91 337.23,149.70 330.17,145.09C328.33,143.90 326.23,142.52 325.50,142.02C322.64,140.07 314.99,136.11 309.61,133.80C300.53,129.89 284.97,125.61 275.17,124.32C268.80,123.48 266.90,123.35 258.41,123.12C242.70,122.71 231.89,124.41 217.33,129.58C204.89,133.99 195.27,140.10 186.12,149.39C179.19,156.44 176.19,160.79 171.27,170.95C165.87,182.12 163.55,192.89 163.57,206.67C163.59,216.68 165.51,226.18 169.76,237.37C170.84,240.20 175.19,248.35 177.07,251.07C177.87,252.22 178.94,253.88 179.45,254.75C182.29,259.67 191.89,270.98 198.88,277.67C205.95,284.42 215.28,292.43 222.46,297.89C223.95,299.03 226.82,301.24 228.83,302.82C230.85,304.39 233.46,306.39 234.63,307.26C235.80,308.12 240.31,311.46 244.64,314.67C248.97,317.88 253.14,320.95 253.90,321.50C254.67,322.05 257.97,324.44 261.23,326.82C264.50,329.19 268.89,332.39 271.00,333.91C273.11,335.43 275.66,337.33 276.67,338.12C277.68,338.91 279.55,340.28 280.83,341.17C285.63,344.48 286.57,345.17 289.50,347.47C291.15,348.77 294.72,351.49 297.43,353.50C307.81,361.22 313.64,365.79 320.62,371.67C321.81,372.68 324.03,374.47 325.54,375.67C329.85,379.07 341.68,390.11 347.00,395.68C354.13,403.17 360.98,411.63 368.05,421.67C372.54,428.05 380.71,443.88 383.78,452.17C385.53,456.89 388.26,465.96 389.15,470.00C389.45,471.38 389.90,473.40 390.15,474.50C390.41,475.60 390.86,478.00 391.16,479.83C391.45,481.67 391.84,483.99 392.01,485.00C392.66,488.80 393.08,500.28 392.87,508.67C392.59,519.69 392.06,524.60 390.19,533.50C388.36,542.18 388.21,542.77 386.36,548.75C383.01,559.60 379.00,568.94 373.56,578.50C370.47,583.95 363.89,593.91 361.69,596.48C360.85,597.46 358.59,600.18 356.67,602.53C340.23,622.61 313.48,640.02 285.17,649.08C281.69,650.19 280.39,650.57 273.67,652.46C270.07,653.47 265.50,654.52 262.50,655.01C261.22,655.22 259.12,655.60 257.83,655.85C246.50,658.05 229.35,659.03 214.00,658.35Z"/>
<path class="sr-main" fill-rule="evenodd" d="M661.50,370.18C655.43,369.64 651.28,368.63 646.54,366.53C645.46,366.06 644.40,365.67 644.17,365.67C643.80,365.67 642.53,365.13 637.50,362.84C635.11,361.75 630.44,359.15 625.93,356.39C623.79,355.07 621.97,354.00 621.88,354.00C621.80,354.00 620.28,352.99 618.50,351.75C616.72,350.51 615.02,349.35 614.72,349.17C614.43,348.98 613.40,348.23 612.45,347.50C611.49,346.77 610.17,345.79 609.50,345.33C608.20,344.43 600.61,338.28 596.14,334.50C591.72,330.76 580.23,320.24 575.17,315.28C572.60,312.77 567.67,307.92 564.21,304.50C560.10,300.44 557.76,298.35 557.44,298.48C556.88,298.69 556.79,298.50 559.50,302.67C562.60,307.43 564.32,310.65 567.69,318.00C571.24,325.73 572.67,329.08 572.67,329.65C572.67,329.95 572.80,330.34 572.96,330.52C573.77,331.37 575.08,338.01 574.44,337.99C573.73,337.98 565.23,329.62 562.08,325.83C560.71,324.18 557.45,320.58 554.85,317.83C552.25,315.08 548.79,311.33 547.16,309.50C545.53,307.67 543.89,305.85 543.51,305.47C535.94,297.75 533.41,295.00 531.58,292.50C530.37,290.85 529.00,289.03 528.54,288.47C528.07,287.90 527.54,287.04 527.35,286.55C527.17,286.06 526.89,285.67 526.72,285.67C526.45,285.67 524.33,282.51 524.33,282.11C524.33,282.01 523.91,281.38 523.38,280.71C522.35,279.40 522.38,279.45 519.62,273.93C517.04,268.75 516.83,268.19 515.98,264.63C515.22,261.41 514.54,260.33 513.26,260.33C512.90,260.33 512.20,260.13 511.72,259.89C511.23,259.65 509.97,259.01 508.91,258.48C505.34,256.69 502.21,252.81 501.55,249.37C501.23,247.74 501.93,244.17 502.70,243.47C504.02,242.27 503.80,241.80 498.83,235.33C497.64,233.78 495.69,231.15 494.51,229.50C491.02,224.63 489.90,223.08 488.67,221.42C488.02,220.55 485.67,217.29 483.43,214.17C481.19,211.05 478.99,208.05 478.55,207.50C477.68,206.43 475.76,204.00 472.42,199.74C470.03,196.70 465.12,191.76 463.79,191.06C463.29,190.80 461.97,190.39 460.86,190.15C455.50,189.01 453.26,186.63 454.21,183.10C454.62,181.57 457.48,180.49 459.60,181.07C462.07,181.74 464.90,184.87 465.48,187.56C465.62,188.18 467.08,190.27 469.10,192.72C472.65,197.01 473.32,197.87 478.41,204.58C482.75,210.31 485.48,214.05 485.63,214.47C485.71,214.67 486.46,215.69 487.30,216.73C488.14,217.77 489.17,219.12 489.59,219.73C490.43,220.95 494.84,227.11 496.69,229.65C497.34,230.54 498.77,232.30 499.87,233.55C500.96,234.81 502.37,236.56 503.01,237.44C505.58,241.01 505.27,240.83 507.47,240.13C509.59,239.46 510.01,238.95 509.32,237.87C508.50,236.61 506.33,232.19 506.33,231.80C506.33,231.59 505.60,229.71 504.71,227.62C503.32,224.37 500.98,218.45 499.98,215.67C499.82,215.21 499.07,212.73 498.32,210.17C497.57,207.60 496.57,204.22 496.11,202.67C494.91,198.64 492.88,190.01 491.69,183.83C490.96,180.09 490.48,178.34 490.02,177.85C488.05,175.76 486.88,170.94 487.64,168.11C488.16,166.18 490.06,164.53 491.44,164.81C494.37,165.39 495.40,168.87 494.17,174.06C492.89,179.46 492.91,179.23 493.44,182.09C493.71,183.60 494.12,185.96 494.33,187.33C494.71,189.70 496.33,197.15 497.03,199.67C497.36,200.88 499.16,207.09 499.68,208.83C500.04,210.03 503.79,220.88 504.17,221.83C504.32,222.20 505.11,224.07 505.94,226.00C506.77,227.93 508.37,231.75 509.50,234.50C511.06,238.31 511.74,239.60 512.36,239.90C512.80,240.12 514.16,240.76 515.38,241.33C519.54,243.26 522.74,248.14 523.24,253.33C523.46,255.59 523.86,256.07 526.27,256.95C528.87,257.90 535.43,263.83 537.17,266.81C537.35,267.12 537.80,267.41 538.17,267.44C538.92,267.51 538.93,267.28 538.32,261.67C538.13,259.93 537.83,256.70 537.65,254.50C537.48,252.30 537.19,249.68 537.02,248.67C536.72,246.93 536.19,229.91 536.20,222.33C536.21,217.39 536.90,203.98 537.30,201.00C537.48,199.62 537.80,196.92 538.01,195.00C538.22,193.08 538.61,190.22 538.89,188.67C539.17,187.11 539.51,185.01 539.65,184.00C540.68,176.58 546.13,152.30 548.23,145.83C548.52,144.92 548.96,143.57 549.20,142.83C549.43,142.10 549.95,140.30 550.35,138.83C550.74,137.37 551.19,135.87 551.34,135.50C551.50,135.13 551.86,134.01 552.16,133.00C552.47,131.99 552.91,130.64 553.16,130.00C553.40,129.36 554.06,127.59 554.63,126.08C558.50,115.66 559.68,112.60 560.57,110.67C561.03,109.66 561.60,108.31 561.84,107.67C563.55,102.94 572.83,84.14 576.59,77.79C577.15,76.85 578.09,75.20 578.68,74.12C579.27,73.05 580.19,71.52 580.71,70.73C581.24,69.94 581.67,69.23 581.67,69.15C581.67,69.07 582.34,68.02 583.17,66.82C583.99,65.61 584.67,64.55 584.67,64.46C584.67,64.37 585.15,63.64 585.75,62.85C586.35,62.05 587.10,60.97 587.42,60.45C590.08,56.10 592.01,53.49 596.67,47.90C598.23,46.03 600.13,43.67 600.90,42.67C601.67,41.66 603.86,39.26 605.75,37.33C608.78,34.25 611.15,32.24 617.87,27.03C619.67,25.64 624.83,22.67 625.46,22.66C625.66,22.66 626.28,22.42 626.83,22.13C628.85,21.05 633.78,20.04 637.12,20.01C640.11,19.99 643.88,21.33 646.70,23.41C647.82,24.23 650.96,28.23 651.76,29.83C652.80,31.94 654.65,38.32 655.19,41.67C655.80,45.47 655.95,52.83 655.69,67.50C655.51,77.47 655.49,77.39 659.31,85.33C663.44,93.92 664.30,98.31 664.50,111.83C664.62,120.08 664.70,121.13 665.47,124.31C666.31,127.75 667.46,131.03 668.16,132.00C668.36,132.28 668.90,133.23 669.35,134.11C670.49,136.35 670.82,136.91 671.40,137.58C672.18,138.46 674.63,143.08 675.38,145.08C675.97,146.61 677.05,150.30 678.02,154.00C678.82,157.09 679.74,165.52 679.57,168.28C678.97,178.42 677.63,186.48 675.52,192.67C675.11,193.86 674.51,195.73 674.18,196.83C672.76,201.62 670.27,206.40 665.55,213.40C663.30,216.72 653.57,226.33 652.44,226.33C651.82,226.34 649.23,228.89 649.46,229.27C649.80,229.81 650.97,229.76 652.13,229.16C652.65,228.89 653.93,228.58 654.96,228.48C655.99,228.38 658.03,228.09 659.50,227.83C665.32,226.81 667.61,226.67 672.94,227.02C683.91,227.74 691.56,230.10 697.83,234.69C702.07,237.79 706.17,242.05 708.29,245.55C712.48,252.43 714.31,258.29 714.33,264.83C714.35,269.57 714.19,269.00 717.67,276.98C719.93,282.18 721.15,291.83 720.37,298.39C719.46,306.04 717.56,315.81 716.00,320.83C713.66,328.37 712.56,331.64 711.84,333.17C711.59,333.72 710.84,335.55 710.18,337.24C706.26,347.30 697.92,357.66 688.49,364.19C686.87,365.31 683.42,366.99 681.00,367.83C680.18,368.12 678.90,368.57 678.16,368.83C673.71,370.41 668.71,370.82 661.50,370.18Z M665.17,363.05C667.51,362.40 667.74,361.78 666.09,360.57C664.79,359.61 662.48,356.76 662.02,355.55C661.33,353.75 660.33,354.54 659.67,357.40C659.36,358.77 658.92,359.60 658.12,360.38C656.35,362.10 656.57,362.52 659.65,363.19C662.11,363.73 662.80,363.71 665.17,363.05Z M655.46,360.20C657.48,359.36 658.99,356.22 659.00,352.83C659.00,350.13 656.82,344.47 653.53,338.67C653.06,337.84 652.57,336.94 652.44,336.67C652.21,336.16 650.91,334.25 648.72,331.17C648.07,330.25 647.00,328.89 646.35,328.14C645.70,327.40 644.27,325.76 643.17,324.50C642.07,323.25 640.58,321.68 639.86,321.03C639.15,320.37 637.73,319.02 636.70,318.04C635.01,316.40 630.40,312.56 627.36,310.26C625.49,308.84 622.00,306.53 620.17,305.51C619.25,304.99 618.27,304.38 618.00,304.15C616.64,303.00 612.60,301.34 609.99,300.87C606.51,300.25 600.01,298.77 598.19,298.18C597.44,297.95 594.73,297.19 592.17,296.51C589.60,295.82 586.51,294.98 585.30,294.63C584.09,294.28 582.86,294.00 582.57,294.00C582.28,294.00 580.49,293.50 578.60,292.89C571.11,290.47 567.78,289.49 563.67,288.49C562.66,288.24 561.16,287.82 560.33,287.55C555.60,286.01 553.37,286.09 554.94,287.77C555.34,288.19 555.67,288.71 555.67,288.92C555.67,289.13 555.89,289.43 556.17,289.58C556.45,289.74 561.51,294.59 567.42,300.37C573.33,306.15 579.22,311.83 580.50,313.00C581.78,314.16 584.58,316.78 586.73,318.81C588.87,320.84 591.49,323.18 592.55,324.00C593.61,324.82 597.18,327.68 600.49,330.33C610.12,338.08 610.59,338.41 627.67,349.50C640.59,357.90 651.20,361.98 655.46,360.20Z M677.65,358.98C679.26,358.60 683.69,355.75 687.63,352.55C691.66,349.28 692.76,345.25 690.62,341.67C690.46,341.39 690.14,340.79 689.91,340.33C688.94,338.36 683.75,332.42 677.84,326.52C669.43,318.13 666.39,315.40 664.33,314.40C663.88,314.18 662.95,313.66 662.29,313.25C659.17,311.33 655.99,309.31 652.73,307.17C650.77,305.88 648.34,304.42 647.33,303.92C646.32,303.41 645.05,302.70 644.50,302.33C643.31,301.54 641.85,301.49 640.22,302.17C639.29,302.55 637.55,302.67 632.55,302.67C625.68,302.67 624.61,302.90 625.98,304.07C626.32,304.37 626.79,305.44 627.02,306.46C627.41,308.19 627.58,308.42 629.90,310.23C633.96,313.41 637.35,316.42 639.98,319.18C643.04,322.39 645.67,325.53 645.67,325.97C645.67,326.15 645.85,326.42 646.08,326.57C646.63,326.91 649.04,329.84 651.45,333.08C653.23,335.48 657.30,342.83 657.83,344.61C657.96,345.04 658.80,346.66 659.70,348.22C660.60,349.78 661.33,351.16 661.33,351.29C661.33,351.78 664.74,355.00 666.88,356.52C670.62,359.19 673.69,359.89 677.65,358.98Z M696.65,346.81C697.56,346.16 698.39,345.36 698.49,345.03C698.70,344.37 697.96,341.16 697.33,339.99C697.11,339.59 697.01,338.90 697.09,338.46C697.34,337.13 696.62,336.47 695.43,336.96C694.88,337.19 694.05,337.28 693.58,337.16C692.52,336.89 691.33,337.49 691.33,338.30C691.33,338.63 691.77,339.45 692.30,340.12C693.35,341.45 694.23,345.03 693.86,346.51C693.40,348.35 694.36,348.46 696.65,346.81Z M698.23,333.87C701.73,332.07 703.88,328.12 704.85,321.70C706.05,313.74 705.10,310.74 699.69,305.31C697.98,303.60 696.09,302.15 693.84,300.84C690.17,298.69 679.55,294.29 674.00,292.62C673.36,292.42 672.68,292.14 672.50,292.00C672.19,291.75 670.36,291.07 665.17,289.28C664.07,288.90 662.19,288.45 661.00,288.29C659.81,288.12 658.29,287.90 657.62,287.80C656.00,287.54 655.86,287.85 655.85,291.73C655.83,294.93 655.82,294.98 654.74,296.09C654.14,296.71 652.79,297.55 651.74,297.97C647.85,299.49 647.64,299.86 649.67,301.68C650.49,302.42 651.40,303.25 651.69,303.51C651.99,303.78 652.34,304.00 652.48,304.00C652.62,304.00 653.20,304.34 653.77,304.75C654.35,305.16 655.08,305.65 655.39,305.83C658.05,307.38 660.80,309.22 661.42,309.87C661.83,310.30 662.29,310.66 662.44,310.66C662.82,310.67 666.29,313.24 671.61,317.44C676.28,321.13 682.02,326.54 684.40,329.50C688.57,334.67 693.60,336.26 698.23,333.87Z M710.09,318.23C711.47,315.31 710.94,312.18 708.83,310.80C707.05,309.63 706.62,310.82 707.51,314.50C707.77,315.60 707.99,317.11 707.99,317.86C708.00,320.12 709.11,320.32 710.09,318.23Z M711.96,306.14C712.44,305.53 712.59,304.97 712.47,304.22C712.09,301.80 711.59,299.47 711.35,299.00C710.97,298.26 710.03,298.20 709.77,298.89C709.49,299.67 708.06,301.62 707.11,302.55C705.92,303.70 706.59,304.99 709.06,306.32C710.62,307.16 711.19,307.12 711.96,306.14Z M642.50,300.57C645.98,299.69 646.87,299.30 650.17,297.20C654.17,294.65 655.51,291.42 654.10,287.68C652.07,282.29 645.72,276.47 637.17,272.17C636.07,271.62 634.79,270.92 634.33,270.61C632.63,269.47 629.24,268.67 624.69,268.32C613.87,267.50 611.22,267.59 602.17,269.04C594.17,270.33 580.53,273.04 577.83,273.86C573.80,275.11 573.41,275.21 570.00,276.01C568.26,276.42 565.86,277.02 564.67,277.34C563.48,277.67 561.68,278.12 560.67,278.35C559.66,278.57 558.46,278.94 558.00,279.17C557.54,279.40 555.91,279.90 554.37,280.29C550.37,281.29 549.69,282.05 552.37,282.51C553.58,282.71 555.83,283.52 557.33,284.29C558.33,284.80 572.60,289.30 576.50,290.34C580.23,291.33 587.32,293.52 590.00,294.50C590.64,294.73 592.44,295.25 594.00,295.64C595.56,296.04 597.73,296.60 598.83,296.89C599.93,297.18 601.36,297.54 602.00,297.69C602.64,297.83 603.77,298.11 604.50,298.31C605.23,298.50 607.33,298.96 609.17,299.33C611.00,299.70 613.02,300.16 613.67,300.35C616.77,301.28 621.66,301.62 630.33,301.51C638.45,301.41 639.44,301.33 642.50,300.57Z M706.44,300.67C707.31,300.12 708.11,299.41 708.23,299.08C708.34,298.76 708.68,298.20 708.98,297.83C709.78,296.86 710.26,295.19 710.65,292.00C711.20,287.49 710.67,284.23 708.38,278.00C708.01,276.99 707.31,274.85 706.83,273.25C705.22,267.88 701.81,264.46 695.55,261.94C689.31,259.43 676.02,259.57 661.00,262.31C646.47,264.96 643.46,265.71 640.33,267.48C639.51,267.94 638.48,268.48 638.06,268.66C636.92,269.16 637.28,270.04 639.03,271.00C639.87,271.46 641.35,272.43 642.34,273.17C643.32,273.90 645.26,275.35 646.65,276.39C651.37,279.92 653.83,281.57 654.72,281.78C655.21,281.90 657.31,282.81 659.39,283.79C661.47,284.78 663.99,285.91 665.00,286.31C667.47,287.29 667.80,287.43 670.53,288.63C671.82,289.20 673.04,289.67 673.23,289.67C673.77,289.67 676.30,290.76 683.00,293.91C690.10,297.24 692.52,298.31 693.50,298.53C694.05,298.66 694.80,298.97 695.16,299.22C695.52,299.46 696.12,299.67 696.50,299.67C696.88,299.67 697.78,299.97 698.50,300.33C699.22,300.70 700.11,301.00 700.49,301.01C700.86,301.01 701.39,301.16 701.67,301.33C702.69,302.00 704.82,301.70 706.44,300.67Z M564.66,275.51C565.12,275.28 567.75,274.68 570.50,274.18C575.10,273.35 578.16,272.66 582.50,271.48C585.63,270.62 591.49,269.38 595.67,268.69C599.53,268.06 609.98,266.67 610.91,266.67C611.13,266.67 611.74,266.25 612.27,265.75C612.79,265.25 614.47,263.86 615.99,262.68C619.29,260.10 626.42,253.13 627.72,251.21C628.24,250.45 628.66,249.51 628.66,249.11C628.67,247.70 626.07,246.26 622.04,245.46C621.48,245.35 620.30,245.51 619.28,245.84C616.45,246.76 589.43,260.04 585.83,262.27C584.15,263.32 583.46,263.67 578.37,266.06C576.84,266.79 575.04,267.72 574.37,268.13C571.39,270.00 568.91,271.41 565.51,273.15C561.43,275.26 560.92,275.60 561.21,276.07C561.45,276.45 563.44,276.13 564.66,275.51Z M552.95,274.79C559.06,271.87 560.37,271.21 560.54,270.94C560.63,270.78 561.19,270.44 561.77,270.17C562.36,269.91 563.43,269.32 564.17,268.86C564.90,268.41 566.77,267.38 568.33,266.58C569.89,265.79 572.22,264.52 573.50,263.78C574.78,263.04 578.38,261.11 581.50,259.51C591.58,254.31 595.80,252.12 597.61,251.13C598.59,250.60 600.09,249.79 600.95,249.32C605.89,246.64 612.08,243.67 612.72,243.67C612.98,243.67 613.34,243.54 613.52,243.37C613.69,243.21 615.11,242.52 616.67,241.84C620.73,240.06 625.56,237.67 630.17,235.18C632.37,233.99 634.92,232.62 635.83,232.15C636.75,231.67 638.55,230.67 639.83,229.93C641.12,229.19 642.47,228.41 642.83,228.20C645.55,226.65 650.00,223.24 651.02,221.93C655.48,216.21 656.39,214.90 658.53,211.07C661.11,206.44 662.15,201.67 661.22,198.67C660.87,197.50 660.40,196.91 659.14,196.00C657.59,194.89 657.39,194.83 654.80,194.86C652.14,194.89 648.34,195.87 642.50,198.01C629.02,202.95 623.38,205.33 614.33,209.87C604.14,214.98 599.89,217.31 596.60,219.57C595.33,220.45 593.95,221.39 593.53,221.67C593.11,221.94 592.33,222.45 591.80,222.80C590.40,223.72 588.71,224.80 587.09,225.80C584.77,227.23 582.11,230.24 578.51,235.50C576.90,237.87 574.92,240.71 572.07,244.80C571.57,245.51 571.02,246.34 570.83,246.64C570.52,247.14 568.05,250.52 563.16,257.13C561.41,259.49 559.98,261.53 558.83,263.27C558.13,264.34 552.11,272.30 550.89,273.76C549.80,275.08 549.52,276.00 550.22,276.00C550.32,276.00 551.55,275.45 552.95,274.79Z M547.89,272.94C548.59,271.99 550.07,270.00 551.17,268.50C554.59,263.86 557.72,259.92 559.75,257.73C560.81,256.57 562.06,255.07 562.51,254.39C563.52,252.88 564.19,251.99 567.17,248.17C568.45,246.52 569.92,244.57 570.42,243.83C571.37,242.43 571.99,241.61 574.17,238.79C576.45,235.84 582.88,226.42 584.75,223.29C588.32,217.30 596.15,200.69 597.13,197.00C597.45,195.81 597.86,194.38 598.04,193.83C598.42,192.72 598.99,190.74 600.04,187.00C601.31,182.45 601.74,178.52 601.79,171.00C601.85,161.16 601.09,158.04 597.92,155.11C595.90,153.26 594.54,152.84 592.09,153.34C588.53,154.07 583.56,156.77 580.68,159.55C580.04,160.17 579.42,160.67 579.29,160.67C578.79,160.67 574.63,166.09 571.61,170.67C565.93,179.29 563.33,184.98 558.03,200.33C556.98,203.36 555.95,206.58 555.73,207.50C555.51,208.42 554.95,210.59 554.48,212.33C553.00,217.90 552.02,222.35 551.00,228.17C550.45,231.28 549.78,235.03 549.52,236.50C548.44,242.49 548.25,243.65 547.79,247.00C546.78,254.37 545.20,273.83 545.55,274.42C545.93,275.03 546.70,274.54 547.89,272.94Z M544.68,263.46C545.32,252.17 548.38,229.30 549.98,223.83C550.14,223.28 550.60,221.33 551.01,219.50C551.79,215.99 552.84,212.05 554.02,208.17C554.41,206.88 555.00,204.93 555.33,203.83C557.76,195.67 559.82,189.97 561.47,186.83C562.13,185.59 562.15,183.70 561.52,182.26C560.43,179.74 559.54,176.01 558.31,168.74C557.94,166.59 557.44,163.78 557.19,162.50C556.93,161.22 556.49,158.89 556.19,157.33C555.06,151.32 554.28,150.14 553.06,152.56C552.13,154.42 551.43,156.74 550.67,160.50C549.87,164.46 548.41,170.76 547.96,172.17C547.14,174.74 544.21,191.98 543.69,197.33C543.51,199.08 543.15,202.00 542.87,203.83C541.41,213.43 540.85,246.77 541.95,259.00C542.15,261.29 542.40,264.37 542.49,265.83C542.62,267.81 542.81,268.61 543.23,268.92C543.55,269.16 543.92,269.21 544.09,269.05C544.25,268.89 544.51,266.37 544.68,263.46Z M637.67,265.50C639.41,264.97 642.31,264.37 648.83,263.18C651.40,262.71 654.25,262.17 655.17,261.98C658.48,261.27 664.22,260.29 666.67,260.01C668.04,259.85 672.29,259.26 676.11,258.70C679.93,258.13 684.35,257.67 685.92,257.67C688.69,257.67 689.76,257.39 692.39,255.99C692.83,255.75 692.98,255.85 693.06,256.42C693.15,257.00 693.51,257.23 694.84,257.52C695.76,257.73 696.84,258.07 697.23,258.28C697.63,258.49 699.00,258.67 700.28,258.67C702.48,258.67 702.65,258.61 703.49,257.61C703.98,257.03 704.31,256.32 704.22,256.03C703.64,254.13 702.53,251.42 701.70,249.90C701.17,248.92 700.68,247.88 700.62,247.59C700.40,246.63 696.86,242.93 694.17,240.86C691.51,238.82 688.84,237.00 688.50,237.00C688.40,237.00 687.76,236.65 687.08,236.22C685.85,235.45 680.91,233.73 678.00,233.06C674.26,232.19 670.15,231.91 664.24,232.10C656.50,232.35 651.18,233.32 641.00,236.33C636.57,237.63 624.25,242.56 623.76,243.23C623.15,244.03 623.75,244.55 625.59,244.83C626.46,244.96 627.32,245.17 627.50,245.30C627.68,245.44 628.47,245.75 629.25,245.99C630.63,246.43 630.72,246.41 632.09,245.43C633.87,244.15 637.47,242.33 638.21,242.33C638.72,242.33 638.72,242.39 638.17,242.99C637.85,243.35 637.26,243.75 636.87,243.87C636.48,243.99 635.68,244.48 635.09,244.96C634.50,245.44 633.34,246.36 632.52,247.00C631.63,247.69 630.65,248.90 630.10,249.98C629.15,251.82 625.56,255.61 619.30,261.37C615.26,265.09 615.29,265.14 621.91,265.48C624.62,265.62 627.96,265.83 629.33,265.95C632.62,266.23 635.81,266.06 637.67,265.50Z M591.67,218.17C592.12,217.90 592.84,217.68 593.26,217.68C594.40,217.66 598.36,215.93 606.79,211.75C613.80,208.27 616.68,206.98 625.17,203.50C627.62,202.49 631.81,200.73 635.83,199.00C636.20,198.84 637.32,198.42 638.33,198.06C641.47,196.93 644.81,195.64 645.43,195.30C645.76,195.12 647.11,194.59 648.43,194.11C651.03,193.18 657.09,190.25 659.29,188.86C660.04,188.39 660.79,188.00 660.96,188.00C661.47,188.00 666.47,182.93 667.53,181.33C668.66,179.63 669.81,176.19 670.32,173.00C671.25,167.11 669.83,159.79 667.23,157.05C665.27,155.00 663.23,154.22 660.00,154.27C658.44,154.30 656.64,154.53 656.00,154.79C655.36,155.04 653.93,155.58 652.83,155.99C649.20,157.33 646.53,158.58 644.00,160.11C642.62,160.95 640.60,162.17 639.50,162.83C638.40,163.49 636.82,164.47 636.00,165.00C635.18,165.53 633.07,166.81 631.33,167.84C628.30,169.63 621.14,174.12 619.13,175.49C618.24,176.09 614.90,178.56 612.03,180.74C611.37,181.23 610.01,182.21 609.01,182.90C606.10,184.92 602.96,188.03 602.20,189.67C601.81,190.49 601.11,191.69 600.64,192.33C600.16,192.97 599.61,194.28 599.40,195.23C599.19,196.18 598.21,198.81 597.22,201.07C596.23,203.32 594.95,206.37 594.39,207.83C593.82,209.30 592.54,212.15 591.54,214.17C590.24,216.81 589.83,217.95 590.07,218.25C590.50,218.77 590.63,218.76 591.67,218.17Z M665.31,196.47C665.72,195.17 666.00,193.59 665.94,192.97C665.84,191.90 665.77,191.84 664.69,191.93C663.27,192.04 662.01,192.65 661.53,193.44C661.23,193.93 661.33,194.18 662.03,194.77C662.55,195.21 663.07,196.16 663.33,197.17C664.08,200.02 664.21,199.97 665.31,196.47Z M669.12,187.37C669.38,187.15 669.86,186.00 670.19,184.80C670.74,182.76 670.74,182.56 670.21,181.46C669.51,179.98 669.09,180.12 667.83,182.26C667.28,183.20 666.41,184.66 665.89,185.51C664.62,187.58 664.87,188.13 666.99,187.93C667.90,187.84 668.86,187.59 669.12,187.37Z M606.00,181.05C606.82,180.58 608.44,179.39 609.58,178.39C611.31,176.90 611.94,176.55 613.24,176.41C614.80,176.23 620.20,173.37 624.62,170.38C627.21,168.63 627.76,168.27 629.55,167.20C630.44,166.68 631.47,165.99 631.83,165.68C632.20,165.38 634.23,164.10 636.33,162.84C644.26,158.13 647.37,155.84 651.88,151.38C656.61,146.70 657.46,145.50 658.99,141.32C660.30,137.73 660.37,134.04 659.22,129.33C656.59,118.58 650.55,116.48 640.12,122.69C637.03,124.52 634.92,126.08 628.24,131.43C623.49,135.24 605.99,153.03 604.36,155.70C604.02,156.26 603.43,156.94 603.04,157.21C602.15,157.84 602.14,158.83 603.00,163.26C603.80,167.39 603.84,170.38 603.15,176.65C602.47,182.79 602.59,182.97 606.00,181.05Z M568.30,173.50C570.08,170.38 571.95,167.19 572.45,166.41C572.95,165.62 573.45,164.50 573.56,163.91C573.68,163.32 574.32,161.86 574.99,160.66C575.66,159.47 576.62,157.59 577.12,156.49C577.62,155.40 578.16,154.28 578.33,154.00C578.50,153.72 579.04,152.67 579.53,151.67C582.41,145.76 583.98,142.68 584.71,141.50C585.17,140.77 586.04,139.19 586.64,138.00C587.25,136.81 587.93,135.61 588.15,135.33C588.38,135.06 589.34,133.26 590.31,131.33C592.94,126.05 597.40,117.61 598.84,115.17C599.27,114.43 599.84,113.37 600.10,112.81C601.18,110.52 605.99,103.53 609.73,98.83C613.00,94.72 618.95,87.11 621.19,84.17C621.47,83.80 623.36,81.40 625.39,78.83C627.43,76.27 629.33,73.79 629.61,73.33C629.90,72.88 630.59,71.91 631.15,71.20C632.21,69.84 632.45,69.44 634.24,66.07C636.03,62.70 637.09,59.49 638.03,54.50C639.07,48.98 638.71,44.17 636.98,40.42C636.63,39.64 636.33,38.87 636.33,38.71C636.33,38.22 633.80,36.08 632.36,35.35C630.01,34.15 626.65,34.53 621.66,36.56C619.32,37.51 616.69,39.56 609.50,46.06C603.48,51.50 603.31,51.70 595.97,61.74C592.89,65.95 587.67,73.63 587.67,73.94C587.67,74.06 586.99,75.19 586.17,76.45C585.34,77.70 584.67,78.81 584.67,78.90C584.67,78.99 584.25,79.62 583.75,80.29C583.25,80.96 582.65,81.80 582.43,82.17C580.97,84.55 578.32,89.24 577.16,91.50C576.40,92.97 574.93,95.70 573.90,97.58C571.89,101.22 570.63,103.82 569.17,107.33C568.68,108.53 568.14,109.64 567.97,109.82C567.80,109.99 567.67,110.37 567.67,110.67C567.67,110.96 567.50,111.37 567.29,111.58C567.08,111.78 566.65,112.68 566.33,113.56C564.53,118.57 563.94,120.10 562.84,122.67C562.17,124.22 561.39,126.25 561.11,127.17C560.83,128.08 560.40,129.36 560.17,130.00C559.93,130.64 559.49,132.37 559.20,133.83C558.90,135.30 558.43,137.62 558.14,139.00C556.44,147.12 557.73,162.71 561.00,173.50C561.95,176.64 563.69,179.45 564.57,179.27C564.84,179.21 566.52,176.62 568.30,173.50Z M586.68,153.48C587.32,152.71 589.00,152.10 591.74,151.64C594.64,151.15 596.30,151.40 597.62,152.51C598.16,152.96 598.86,153.33 599.19,153.33C599.88,153.33 603.62,150.86 605.33,149.28C605.98,148.69 607.62,147.23 609.00,146.05C610.38,144.86 612.48,142.97 613.68,141.86C614.88,140.75 617.35,138.56 619.16,137.00C626.47,130.72 638.64,118.65 642.34,114.00C647.34,107.72 649.65,101.68 649.66,94.91C649.68,83.01 642.51,77.18 633.34,81.64C627.44,84.51 619.39,91.60 613.30,99.31C612.20,100.70 610.64,102.67 609.84,103.69C609.03,104.71 607.52,106.81 606.47,108.36C605.43,109.90 604.17,111.69 603.68,112.33C603.19,112.97 602.08,114.70 601.22,116.17C600.36,117.63 599.51,119.06 599.34,119.33C597.53,122.27 596.15,124.66 594.83,127.17C593.95,128.82 592.89,130.77 592.46,131.50C591.70,132.80 590.63,135.00 589.95,136.67C589.76,137.12 589.39,137.92 589.14,138.44C588.88,138.96 588.67,139.53 588.67,139.71C588.67,139.89 588.36,140.74 587.98,141.60C587.61,142.46 587.17,143.47 587.01,143.83C586.40,145.24 584.61,153.05 584.79,153.51C585.04,154.15 586.14,154.14 586.68,153.48Z M662.28,148.86C664.12,148.80 664.15,148.44 662.88,142.67C661.87,138.06 660.96,137.40 660.65,141.03C660.54,142.20 660.04,144.34 659.53,145.77C658.43,148.87 658.54,149.53 660.09,149.16C660.68,149.01 661.67,148.88 662.28,148.86Z M651.30,112.01C651.78,111.63 652.60,111.05 653.13,110.74C655.93,109.08 655.94,109.04 654.61,105.95C653.95,104.42 653.23,102.34 653.00,101.33C652.77,100.33 652.53,99.30 652.46,99.06C652.21,98.18 651.72,99.04 651.50,100.75C651.37,101.71 650.93,103.40 650.53,104.50C649.14,108.27 648.62,109.83 648.60,110.33C648.59,110.61 648.28,111.16 647.92,111.56C647.56,111.96 647.37,112.46 647.51,112.68C647.87,113.27 650.28,112.84 651.30,112.01Z M636.18,73.99C636.29,73.79 637.76,72.96 639.45,72.13C641.86,70.94 642.90,70.60 644.41,70.55C646.81,70.46 647.24,70.09 646.53,68.72C646.24,68.16 646.00,67.44 646.00,67.12C646.00,66.79 645.53,65.17 644.95,63.52C644.37,61.86 643.50,59.08 643.02,57.33C641.90,53.28 641.28,53.09 640.89,56.67C640.75,58.04 640.33,59.82 639.98,60.63C639.62,61.43 639.33,62.29 639.33,62.55C639.33,62.80 639.18,63.27 639.00,63.59C638.82,63.91 638.14,65.67 637.48,67.50C636.83,69.33 635.99,71.40 635.61,72.10C634.96,73.32 634.97,74.33 635.64,74.33C635.81,74.33 636.06,74.18 636.18,73.99Z"/>
<path class="sr-main" fill-rule="evenodd" d="M152.81,915.57C152.41,915.34 152.33,913.19 152.34,902.07C152.34,894.79 152.46,888.65 152.60,888.43C152.79,888.13 154.39,888.04 158.68,888.09C164.27,888.16 164.57,888.20 166.33,889.08C168.76,890.28 169.65,891.68 169.90,894.67C170.11,897.16 169.44,898.86 167.54,900.64C166.62,901.49 166.83,902.32 167.96,902.35C169.11,902.38 170.59,904.12 171.18,906.16C171.73,908.06 171.73,908.22 171.14,909.95C170.32,912.38 168.30,914.38 165.94,915.10C164.00,915.69 153.69,916.06 152.81,915.57Z M225.92,915.76C225.21,915.65 225.00,915.44 225.00,914.83C225.00,914.40 225.15,913.95 225.33,913.83C225.52,913.72 225.67,913.35 225.67,913.01C225.67,912.67 225.88,911.96 226.14,911.44C226.40,910.92 227.17,909.15 227.85,907.50C228.53,905.85 229.28,904.05 229.52,903.50C230.98,900.14 231.50,898.84 232.54,896.00C233.18,894.26 233.99,892.22 234.35,891.46C234.71,890.71 235.00,889.87 235.00,889.60C235.00,888.77 236.15,888.00 237.39,888.00C238.34,888.00 238.64,888.17 238.98,888.92C240.44,892.08 243.46,899.34 244.50,902.17C245.85,905.83 246.79,908.23 248.32,911.95C249.73,915.37 249.69,915.73 247.92,915.60C246.32,915.49 245.91,914.92 244.78,911.22C243.69,907.65 243.60,907.60 236.94,907.73C231.22,907.83 231.22,907.83 230.63,908.83C230.31,909.38 230.04,910.05 230.02,910.31C229.94,911.98 227.72,916.14 227.02,915.95C226.92,915.92 226.42,915.84 225.92,915.76Z M273.83,915.42C271.52,914.61 269.99,913.49 268.92,911.83C266.91,908.73 266.85,908.32 266.80,898.17C266.78,892.52 266.89,888.67 267.09,888.42C267.51,887.87 268.71,887.88 269.47,888.44C270.01,888.83 270.07,889.70 270.17,898.30C270.28,907.72 270.28,907.72 271.19,909.53C272.27,911.65 273.62,912.57 276.40,913.09C278.87,913.55 280.68,912.99 282.45,911.22C285.03,908.64 285.14,908.05 285.16,897.51C285.17,888.19 285.17,888.19 286.24,887.88C288.39,887.27 288.39,887.27 288.26,898.31C288.12,909.55 287.99,910.22 285.40,912.84C282.77,915.51 277.47,916.69 273.83,915.42Z M315.97,915.66C315.50,915.39 315.44,913.98 315.43,903.49C315.42,896.58 315.29,891.49 315.10,891.30C314.93,891.13 313.08,890.91 310.99,890.80C308.89,890.70 307.06,890.54 306.92,890.45C306.51,890.20 306.63,888.78 307.08,888.42C307.33,888.22 311.35,888.06 317.04,888.03C325.46,887.97 326.65,888.03 327.12,888.51C327.42,888.80 327.67,889.23 327.67,889.46C327.67,890.44 326.82,890.67 323.17,890.67C320.73,890.67 319.33,890.80 319.07,891.07C318.77,891.36 318.67,894.56 318.67,903.38C318.67,909.93 318.55,915.36 318.42,915.43C317.75,915.81 316.44,915.93 315.97,915.66Z M410.92,915.67C409.31,915.18 407.78,914.04 406.79,912.58C405.94,911.32 405.84,910.90 405.87,908.67C405.90,905.65 406.64,904.17 409.17,902.02C410.08,901.23 410.97,900.47 411.13,900.32C411.30,900.16 411.06,899.60 410.58,899.03C409.85,898.17 409.00,895.56 409.00,894.23C409.01,893.18 409.78,891.25 410.58,890.30C412.46,888.07 416.61,887.31 419.56,888.65C422.34,889.91 423.82,894.01 421.59,894.27C420.80,894.36 420.61,894.20 420.14,893.03C419.02,890.23 415.45,889.48 413.23,891.59C412.31,892.46 412.27,892.61 412.42,894.74C412.56,896.73 412.72,897.17 413.85,898.58C415.72,900.93 422.74,907.66 423.09,907.45C423.50,907.19 424.51,904.75 424.78,903.37C425.05,901.98 425.55,901.33 426.36,901.33C427.96,901.33 427.86,904.17 426.12,908.05C425.26,909.96 425.26,909.96 426.51,911.50C427.21,912.34 428.20,913.33 428.72,913.70C429.80,914.47 429.96,915.53 429.04,915.82C428.10,916.12 427.00,915.57 425.11,913.87C423.22,912.17 423.11,912.16 420.75,913.76C417.88,915.70 413.71,916.51 410.92,915.67Z M472.56,915.51C472.14,915.09 472.07,913.14 472.08,902.90C472.08,896.24 472.18,890.20 472.30,889.48C472.73,886.80 474.42,887.74 478.00,892.65C478.82,893.78 479.76,895.03 480.07,895.43C480.81,896.37 484.68,901.54 485.33,902.46C487.71,905.80 490.15,908.83 490.46,908.83C490.70,908.83 490.84,907.92 490.85,906.17C490.86,904.70 490.90,900.50 490.95,896.83C491.00,893.15 490.95,889.92 490.84,889.63C490.73,889.34 490.92,888.76 491.27,888.33C491.85,887.61 491.99,887.58 492.93,887.97C493.96,888.40 493.96,888.40 493.98,901.82C494.00,912.93 493.93,915.31 493.54,915.63C492.64,916.38 491.29,915.26 488.35,911.34C478.30,897.95 475.88,894.83 475.54,894.83C475.27,894.83 475.14,897.72 475.07,905.00C474.99,914.02 474.92,915.21 474.43,915.58C473.70,916.13 473.16,916.11 472.56,915.51Z M513.22,915.73C512.78,915.64 512.65,915.40 512.77,914.89C513.09,913.55 515.92,906.19 517.33,903.00C518.88,899.50 521.28,893.33 521.99,891.00C522.67,888.78 523.50,888.00 525.18,888.00C526.56,888.00 526.60,888.04 527.34,889.75C527.76,890.71 528.29,892.18 528.52,893.00C528.94,894.46 531.68,901.35 532.96,904.12C533.66,905.64 534.11,906.77 535.68,911.00C537.17,915.02 537.19,915.21 536.32,915.67C534.73,916.52 533.71,915.28 531.98,910.40C531.58,909.25 530.99,908.17 530.68,908.00C529.88,907.58 519.40,907.86 518.85,908.32C518.60,908.52 518.22,909.17 518.00,909.76C517.77,910.35 517.28,911.66 516.89,912.67C515.85,915.42 515.03,916.11 513.22,915.73Z M617.82,915.54C615.80,915.04 613.39,913.75 612.81,912.83C612.18,911.86 613.68,909.95 614.58,910.58C619.68,914.15 624.10,914.06 626.00,910.34C627.78,906.85 626.33,904.52 621.25,902.72C617.07,901.23 615.88,900.54 614.70,898.95C613.81,897.73 613.67,897.26 613.67,895.52C613.69,890.81 616.71,888.00 621.74,888.00C626.00,888.00 629.70,890.06 628.56,891.79C627.88,892.82 627.23,892.82 626.02,891.80C623.87,889.99 619.77,890.07 617.87,891.97C616.99,892.85 616.83,893.26 616.83,894.65C616.83,897.39 618.16,898.64 622.71,900.17C628.23,902.04 629.67,903.53 629.67,907.42C629.67,913.63 624.51,917.16 617.82,915.54Z M191.43,915.25C191.10,914.81 191.13,888.93 191.47,888.39C191.57,888.22 195.24,888.07 199.64,888.04C207.35,888.00 207.63,888.02 207.83,888.67C208.10,889.50 207.75,890.66 207.23,890.69C207.01,890.70 204.06,890.74 200.67,890.77L194.50,890.83L194.49,895.44C194.48,897.98 194.60,900.13 194.75,900.22C194.95,900.34 202.01,900.67 204.57,900.67C204.79,900.67 205.13,900.96 205.32,901.31C206.00,902.58 205.14,902.84 199.97,902.94C197.33,902.99 195.05,903.15 194.91,903.29C194.76,903.44 194.69,905.70 194.74,908.33L194.83,913.10L200.75,913.05C206.28,913.00 206.71,913.05 207.34,913.67C207.88,914.21 207.94,914.48 207.66,915.01C207.33,915.64 206.94,915.67 199.53,915.67C193.70,915.67 191.67,915.56 191.43,915.25Z M353.60,915.49C353.48,915.37 353.37,912.81 353.35,909.80C353.32,904.36 353.31,904.32 352.37,902.91C351.84,902.14 350.21,899.40 348.73,896.83C347.26,894.27 345.66,891.55 345.19,890.79C343.97,888.82 344.05,888.33 345.62,888.33C347.15,888.33 347.33,888.52 349.64,892.50C352.34,897.17 354.81,901.28 355.04,901.49C355.31,901.75 359.29,895.09 362.05,889.77C362.78,888.37 363.40,888.01 365.08,888.00C366.20,888.00 366.32,888.90 365.37,890.26C362.81,893.95 360.53,897.64 358.83,900.83C358.15,902.12 357.44,903.36 357.25,903.59C357.07,903.82 356.82,906.59 356.71,909.75C356.50,915.50 356.50,915.50 355.15,915.60C354.41,915.65 353.71,915.60 353.60,915.49Z M555.89,915.44C555.44,915.00 555.63,888.78 556.08,888.41C556.86,887.79 557.87,887.66 558.47,888.11C559.04,888.52 559.08,889.38 559.09,901.73C559.09,908.98 558.99,915.08 558.86,915.29C558.61,915.69 556.26,915.82 555.89,915.44Z M580.99,914.82C580.64,913.87 580.53,890.77 580.88,889.04C581.06,888.09 581.20,888.00 582.36,888.00C583.05,888.00 583.72,888.14 583.82,888.32C583.93,888.50 584.04,894.05 584.06,900.65C584.09,909.10 584.21,912.76 584.47,912.98C584.68,913.15 587.23,913.26 590.15,913.22C594.71,913.17 595.55,913.24 596.14,913.73C596.70,914.18 596.76,914.41 596.46,914.90C596.13,915.45 595.43,915.51 588.71,915.59C581.32,915.68 581.32,915.68 580.99,914.82Z M165.93,912.05C167.95,910.61 168.49,908.28 167.38,905.83C166.63,904.18 166.25,903.88 164.19,903.33C162.41,902.84 156.75,902.69 156.08,903.11C155.58,903.43 155.49,912.35 155.98,912.85C156.17,913.04 158.05,913.09 160.60,912.97C164.31,912.81 165.04,912.68 165.93,912.05Z M417.08,912.70C419.46,911.88 420.67,911.08 420.67,910.32C420.67,909.56 413.78,902.33 413.06,902.33C412.15,902.33 409.97,904.08 409.36,905.31C408.43,907.16 408.28,908.56 408.85,909.93C410.19,913.14 413.02,914.09 417.08,912.70Z M241.81,904.97C242.00,904.79 241.84,904.06 241.40,903.09C240.17,900.40 238.00,894.57 238.00,893.98C238.00,893.67 237.78,893.23 237.51,893.01C237.10,892.67 236.96,892.74 236.71,893.38C236.53,893.81 235.77,895.74 235.01,897.67C233.36,901.86 233.07,902.55 232.43,903.77C231.59,905.37 232.09,905.54 237.07,905.40C239.50,905.32 241.64,905.13 241.81,904.97Z M529.71,905.09C530.03,904.77 529.97,904.35 529.41,903.09C529.02,902.22 528.23,900.30 527.65,898.83C525.77,894.01 525.55,893.50 525.14,893.04C524.64,892.49 524.00,892.82 524.00,893.62C524.00,893.95 523.10,896.45 522.00,899.19C519.83,904.60 519.77,904.84 520.48,905.23C521.28,905.68 529.24,905.56 529.71,905.09Z M163.73,900.28C165.87,899.63 167.00,898.04 167.00,895.67C167.00,891.93 164.52,890.49 158.50,890.73C155.83,890.83 155.83,890.83 155.74,895.32C155.69,897.78 155.72,899.99 155.81,900.23C156.03,900.80 161.88,900.83 163.73,900.28Z M391.74,852.37C389.84,851.72 389.41,851.29 388.30,849.06C386.95,846.34 388.25,842.56 391.02,841.15C397.43,837.91 403.40,845.38 398.68,850.74C396.71,852.97 394.79,853.43 391.74,852.37Z M472.83,848.00C436.88,847.68 412.92,847.36 412.74,847.19C412.67,847.11 412.90,846.77 413.25,846.41C413.87,845.80 414.87,845.76 437.86,845.47C473.43,845.02 601.83,845.12 643.50,845.64C686.75,846.17 684.67,846.12 684.67,846.64C684.67,847.34 686.38,847.31 598.67,847.83C537.24,848.20 500.63,848.24 472.83,848.00Z M190.00,847.90C189.86,847.78 109.07,847.19 105.50,847.29C104.25,847.33 102.99,846.89 103.34,846.55C104.42,845.50 275.57,844.58 336.83,845.29C374.31,845.73 376.09,845.79 375.93,846.61C375.84,847.09 375.04,847.20 370.00,847.39C363.53,847.65 190.26,848.14 190.00,847.90Z M496.00,803.86C490.41,802.97 484.64,798.62 481.53,792.95C479.15,788.63 478.19,782.13 479.14,776.93C480.50,769.49 481.01,768.32 484.67,764.11C490.06,757.91 497.81,755.86 507.67,758.03C512.67,759.14 517.48,763.28 520.14,768.80C522.44,773.58 522.50,773.87 522.48,780.17C522.45,789.36 520.88,793.83 516.11,798.37C512.59,801.72 509.75,803.05 504.38,803.86C500.74,804.41 499.45,804.41 496.00,803.86Z M558.67,803.94C555.85,803.60 555.33,803.19 555.34,801.35C555.35,799.82 555.68,799.33 556.69,799.39C557.13,799.41 559.23,799.44 561.35,799.45C565.09,799.47 565.24,799.44 566.45,798.52C569.70,796.04 570.00,793.90 570.00,773.21C570.00,763.16 570.12,757.97 570.34,757.83C571.00,757.42 574.29,757.55 574.83,758.00C575.32,758.40 575.36,760.17 575.27,775.81C575.16,793.17 575.16,793.17 574.36,795.33C572.99,799.05 571.50,800.83 567.95,802.95C566.94,803.56 562.81,804.41 561.50,804.28C561.32,804.26 560.04,804.11 558.67,803.94Z M778.00,803.67C774.86,802.80 774.38,802.62 772.14,801.40C767.21,798.73 763.71,794.49 762.15,789.33C761.21,786.21 761.19,775.47 762.13,772.50C762.88,770.09 763.88,767.85 764.80,766.50C765.96,764.79 769.44,761.31 770.67,760.63C771.31,760.28 772.28,759.71 772.83,759.38C775.30,757.89 777.27,757.52 782.83,757.51C788.18,757.50 789.40,757.68 792.50,758.95C794.51,759.78 797.99,762.20 799.16,763.59C800.48,765.18 802.67,768.27 802.67,768.56C802.67,768.68 803.06,769.76 803.54,770.97C807.48,780.82 804.59,793.88 797.23,799.45C791.80,803.56 783.87,805.30 778.00,803.67Z M28.17,803.52C25.62,802.86 24.04,802.08 21.93,800.42C19.59,798.58 19.42,797.69 21.12,796.05C22.23,794.97 22.23,794.97 24.53,796.53C28.41,799.15 30.02,799.73 33.53,799.73C40.13,799.73 43.52,796.69 43.49,790.82C43.48,788.89 43.32,788.20 42.60,786.98C41.58,785.26 40.42,784.59 35.33,782.81C26.51,779.71 23.81,777.94 22.27,774.20C21.35,771.98 21.46,766.89 22.46,764.62C23.63,762.00 25.59,759.96 28.17,758.69C30.18,757.70 30.74,757.59 34.34,757.42C38.71,757.22 41.05,757.66 44.08,759.24C47.23,760.89 47.93,762.61 46.11,764.26C45.12,765.15 44.52,765.04 42.39,763.59C35.10,758.59 25.44,762.62 26.66,770.13C27.26,773.84 28.71,774.92 36.50,777.47C45.81,780.53 48.68,783.60 48.71,790.52C48.72,793.13 48.60,793.77 47.73,795.67C46.01,799.43 43.17,802.07 39.44,803.35C37.21,804.12 30.88,804.21 28.17,803.52Z M87.52,803.55C87.07,803.21 87.00,800.53 86.99,780.74C86.98,768.41 87.06,758.17 87.17,757.99C87.45,757.54 91.57,757.58 91.85,758.03C92.10,758.43 92.16,803.29 91.92,803.53C91.56,803.88 87.99,803.90 87.52,803.55Z M259.20,803.56C258.71,803.21 258.65,800.94 258.55,780.76C258.49,768.44 258.54,758.20 258.67,758.00C258.96,757.53 262.70,757.28 263.35,757.68C263.77,757.93 263.83,761.12 263.83,780.47C263.83,795.04 263.72,803.07 263.50,803.27C262.94,803.79 259.80,804.00 259.20,803.56Z M297.92,803.63C297.60,803.45 297.33,803.02 297.33,802.67C297.33,802.08 298.84,798.22 299.35,797.50C299.48,797.32 300.00,796.12 300.49,794.83C302.91,788.56 303.84,786.22 305.17,783.00C305.97,781.07 307.10,778.30 307.68,776.83C308.27,775.37 309.35,772.74 310.08,771.00C310.82,769.26 311.84,766.71 312.36,765.33C315.39,757.23 314.94,757.83 318.03,757.83C320.81,757.83 320.81,757.83 321.03,758.83C321.22,759.68 322.02,761.67 323.33,764.50C324.23,766.45 325.56,769.91 326.68,773.17C327.36,775.18 328.62,778.40 329.46,780.32C330.31,782.24 331.00,783.99 331.00,784.20C331.00,784.41 331.27,784.93 331.60,785.37C331.92,785.81 332.37,786.87 332.59,787.72C332.98,789.25 334.24,792.33 335.18,794.05C335.45,794.54 335.67,795.17 335.67,795.46C335.67,795.74 335.88,796.47 336.14,797.07C337.73,800.74 338.39,802.70 338.21,803.16C338.05,803.59 337.58,803.68 335.79,803.60C333.57,803.50 333.57,803.50 332.62,801.67C332.10,800.66 331.53,799.38 331.36,798.83C331.19,798.28 330.72,797.01 330.32,796.00C329.92,794.99 329.37,793.54 329.10,792.77C328.18,790.18 328.53,790.26 317.93,790.24C308.27,790.22 307.00,790.37 307.00,791.53C307.00,791.81 306.68,792.74 306.29,793.60C305.41,795.52 303.86,799.23 302.95,801.61C302.58,802.58 302.10,803.43 301.88,803.49C300.74,803.84 298.42,803.92 297.92,803.63Z M611.22,803.61C610.46,803.18 610.53,802.42 611.50,800.72C611.96,799.92 612.33,799.09 612.34,798.88C612.34,798.67 612.54,798.12 612.78,797.65C613.03,797.18 613.61,795.68 614.09,794.31C614.56,792.95 615.63,790.23 616.47,788.27C617.31,786.31 618.00,784.62 618.00,784.52C618.00,784.41 618.29,783.69 618.65,782.91C619.21,781.68 621.88,775.03 623.16,771.67C623.87,769.80 626.67,762.65 627.40,760.83C628.65,757.71 628.71,757.67 631.47,757.67C634.29,757.67 634.30,757.67 635.33,760.67C635.74,761.86 636.36,763.47 636.71,764.25C637.05,765.02 637.33,765.74 637.33,765.83C637.33,766.10 639.66,771.98 640.56,773.97C641.01,774.96 641.57,776.31 641.82,776.97C642.71,779.38 645.02,785.10 645.26,785.46C645.39,785.67 645.67,786.43 645.88,787.17C646.34,788.81 646.99,790.64 647.38,791.42C647.54,791.74 648.13,793.17 648.69,794.59C649.24,796.01 649.90,797.62 650.15,798.17C652.59,803.61 652.55,803.87 649.33,803.77C648.19,803.74 647.14,803.59 647.02,803.44C646.68,803.04 645.58,800.26 643.35,794.17C641.87,790.11 643.14,790.51 631.57,790.41C623.57,790.34 621.35,790.42 621.06,790.76C620.87,791.00 620.24,792.38 619.67,793.85C619.09,795.31 618.42,796.95 618.16,797.50C617.91,798.05 617.30,799.55 616.81,800.83C616.33,802.12 615.79,803.31 615.63,803.49C615.22,803.92 611.93,804.01 611.22,803.61Z M132.89,803.44C132.56,803.12 132.63,758.58 132.95,758.07C133.14,757.76 133.88,757.66 135.36,757.73L137.50,757.83L137.75,771.50C137.88,779.02 137.91,788.26 137.80,792.04C137.65,797.32 137.70,798.98 138.01,799.17C138.24,799.31 142.60,799.40 147.69,799.36C158.15,799.28 158.33,799.31 158.33,801.32C158.33,803.85 159.33,803.67 145.52,803.67C138.70,803.67 133.01,803.57 132.89,803.44Z M201.82,802.52C201.55,801.88 201.33,801.21 201.33,801.03C201.33,800.86 200.97,799.84 200.52,798.77C200.08,797.71 199.15,795.41 198.47,793.67C197.42,790.97 196.46,788.73 194.99,785.50C194.53,784.50 193.01,780.32 192.62,779.00C192.43,778.36 192.14,777.69 191.97,777.52C191.80,777.34 191.67,776.99 191.67,776.74C191.67,776.37 189.70,771.45 187.16,765.50C186.93,764.95 186.41,763.60 186.00,762.50C185.60,761.40 185.02,760.00 184.72,759.39C184.19,758.34 184.20,758.26 184.82,757.80C185.28,757.47 186.03,757.37 187.32,757.48C188.34,757.56 189.27,757.64 189.41,757.65C189.76,757.67 191.15,760.78 192.11,763.67C192.93,766.12 196.29,774.86 197.18,776.83C198.17,779.04 199.42,782.25 199.84,783.67C200.26,785.06 200.85,786.65 202.68,791.33C203.07,792.34 203.65,793.84 203.96,794.67C204.28,795.49 204.72,796.17 204.96,796.17C205.36,796.17 206.78,792.81 209.53,785.33C210.18,783.59 210.83,781.93 210.98,781.64C211.14,781.36 211.67,780.08 212.16,778.81C212.65,777.54 213.17,776.20 213.33,775.83C213.48,775.47 214.13,773.82 214.77,772.17C216.57,767.54 218.65,762.27 219.13,761.17C219.37,760.62 219.76,759.68 219.99,759.09C220.47,757.86 220.83,757.70 223.28,757.62C225.03,757.56 225.86,758.01 225.52,758.83C222.61,765.88 221.64,768.30 220.13,772.28C218.44,776.71 216.06,782.40 215.32,783.75C215.14,784.06 215.00,784.49 215.00,784.70C215.00,784.90 214.80,785.54 214.55,786.12C214.30,786.69 213.30,789.12 212.34,791.50C206.88,804.94 207.78,803.49 204.89,803.60C202.31,803.70 202.31,803.70 201.82,802.52Z M414.38,803.23C414.12,802.92 414.04,796.21 414.09,780.31L414.17,757.83L422.33,757.73C427.63,757.66 431.32,757.76 432.83,758.02C435.38,758.46 438.67,759.75 438.67,760.32C438.67,760.52 439.00,760.84 439.42,761.03C441.09,761.82 442.84,765.49 443.18,768.93C443.59,773.10 442.22,777.21 439.63,779.55C438.84,780.26 435.70,781.96 433.91,782.64C431.95,783.38 431.77,783.06 440.90,795.25C444.09,799.51 446.61,803.15 446.50,803.33C446.39,803.52 445.12,803.67 443.69,803.67C440.80,803.67 440.98,803.81 437.67,799.00C434.11,793.85 430.09,788.46 427.90,785.91C426.25,783.98 426.25,783.98 422.87,784.07L419.50,784.17L419.45,793.41C419.43,798.50 419.32,802.89 419.21,803.16C418.96,803.83 414.93,803.88 414.38,803.23Z M687.82,803.25C687.73,803.02 687.70,792.71 687.75,780.33L687.83,757.83L689.90,757.73C691.76,757.65 692.00,757.71 692.36,758.40C692.58,758.82 692.96,759.39 693.21,759.67C694.02,760.56 704.08,774.21 707.00,778.37C708.56,780.60 710.25,782.89 710.75,783.46C711.25,784.03 713.24,786.64 715.18,789.26C717.11,791.88 718.81,793.95 718.96,793.86C719.11,793.77 719.25,785.72 719.27,775.97C719.30,765.39 719.44,758.10 719.63,757.88C720.02,757.41 723.22,757.42 723.68,757.88C723.91,758.11 723.99,765.92 723.93,780.86C723.83,803.50 723.83,803.50 722.36,803.61C720.37,803.75 719.42,803.46 719.16,802.66C719.04,802.28 718.08,800.88 717.02,799.55C715.95,798.21 714.47,796.23 713.71,795.14C712.95,794.06 711.17,791.63 709.75,789.75C708.33,787.87 706.42,785.27 705.50,783.97C704.58,782.66 703.34,780.97 702.73,780.21C698.37,774.73 695.93,771.55 694.70,769.73C693.92,768.57 693.14,767.68 692.97,767.73C692.78,767.80 692.58,774.86 692.48,785.34C692.38,794.96 692.23,803.02 692.16,803.25C692.07,803.52 691.32,803.67 690.00,803.67C688.69,803.67 687.92,803.52 687.82,803.25Z M505.30,799.15C508.64,798.39 512.31,795.86 514.23,793.00C517.02,788.83 517.89,783.80 517.01,776.73C516.29,770.91 515.03,768.19 511.80,765.53C508.74,763.01 505.94,761.93 501.98,761.74C493.37,761.34 487.08,765.88 485.02,774.00C483.64,779.43 483.77,782.58 485.67,788.83C486.85,792.73 488.60,795.22 491.45,797.12C494.74,799.30 500.76,800.18 505.30,799.15Z M789.00,798.70C796.14,796.44 799.71,790.28 799.73,780.17C799.74,773.64 798.60,770.29 795.10,766.62C790.30,761.59 783.35,760.24 776.43,762.99C772.94,764.38 770.68,766.50 768.94,770.02C766.85,774.24 766.58,775.38 766.56,780.17C766.53,785.25 766.90,786.78 769.42,792.28C770.82,795.36 775.03,798.51 778.83,799.34C781.01,799.82 786.57,799.47 789.00,798.70Z M326.11,786.02C326.26,785.87 326.08,784.87 325.71,783.79C324.77,781.02 321.47,772.55 320.97,771.61C320.73,771.18 320.08,769.50 319.52,767.86C317.97,763.33 318.14,763.19 314.67,772.00C313.55,774.84 312.41,777.64 312.15,778.22C311.88,778.79 311.67,779.38 311.67,779.51C311.67,779.65 311.38,780.38 311.03,781.13C309.22,785.04 309.06,785.60 309.65,786.18C310.03,786.56 325.71,786.41 326.11,786.02Z M639.57,785.94C639.89,785.67 639.88,785.40 639.51,784.68C639.24,784.17 638.62,782.58 638.13,781.15C637.63,779.71 637.03,778.15 636.78,777.69C636.54,777.22 636.34,776.64 636.34,776.41C636.33,776.18 636.20,775.73 636.04,775.41C635.34,774.02 634.67,772.27 634.67,771.83C634.67,771.57 634.46,770.86 634.20,770.26C633.95,769.66 633.54,768.72 633.31,768.17C633.07,767.62 632.63,766.49 632.33,765.67C631.71,763.94 630.96,763.72 630.65,765.17C630.45,766.13 629.77,767.94 627.60,773.33C623.06,784.61 622.73,785.51 623.08,785.93C623.53,786.47 638.92,786.47 639.57,785.94Z M430.28,779.83C431.78,779.55 433.60,778.57 435.27,777.14C436.98,775.68 438.00,772.76 438.00,769.32C438.00,767.27 437.90,766.92 436.92,765.65C434.75,762.84 430.91,761.60 424.67,761.71C422.38,761.75 420.23,761.91 419.91,762.07C418.99,762.53 419.07,779.11 419.99,779.75C420.61,780.19 428.04,780.25 430.28,779.83Z"/>
</svg>
